<?xml version="1.0" encoding="UTF-8"?>
<svg version="1.1" xmlns="http://www.w3.org/2000/svg" width="128" height="128">
<path d="M0 0 C42.24 0 84.48 0 128 0 C128 42.24 128 84.48 128 128 C85.76 128 43.52 128 0 128 C0 85.76 0 43.52 0 0 Z " fill="#CD74BF" transform="translate(0,0)"/>
<path d="M0 0 C3.64230905 0.27187852 6.84542105 1.00193921 10.359375 1.99609375 C11.54660156 2.3209375 12.73382813 2.64578125 13.95703125 2.98046875 C17.45753698 4.30697619 19.70020191 5.55106184 22.296875 8.24609375 C22.63671875 10.46484375 22.63671875 10.46484375 22.234375 12.74609375 C22.11964844 13.49890625 22.00492187 14.25171875 21.88671875 15.02734375 C21.28210083 17.30166811 20.42483695 19.18674413 19.296875 21.24609375 C20.781875 21.74109375 20.781875 21.74109375 22.296875 22.24609375 C24.12109375 24.2421875 24.12109375 24.2421875 25.984375 26.68359375 C26.91830078 27.88822266 26.91830078 27.88822266 27.87109375 29.1171875 C29.296875 31.24609375 29.296875 31.24609375 29.296875 33.24609375 C30.781875 33.74109375 30.781875 33.74109375 32.296875 34.24609375 C34.53996655 36.5133218 35.2467981 37.8578733 35.65763855 41.04290771 C35.65097672 42.11768372 35.64431488 43.19245972 35.63745117 44.29980469 C35.63722458 45.52076843 35.63699799 46.74173218 35.63676453 47.99969482 C35.62128067 49.31335022 35.60579681 50.62700562 35.58984375 51.98046875 C35.58424564 53.34238213 35.57997655 54.70430156 35.57698059 56.06622314 C35.56554861 59.64366454 35.53609617 63.22073817 35.50286865 66.79803467 C35.47213191 70.45124334 35.45846759 74.10451168 35.44335938 77.7578125 C35.41122432 84.92075966 35.35847049 92.08332824 35.296875 99.24609375 C30.346875 99.24609375 25.396875 99.24609375 20.296875 99.24609375 C19.925625 98.15296875 19.554375 97.05984375 19.171875 95.93359375 C16.5622509 88.95810563 12.6740484 82.59300027 8.921875 76.18359375 C7.296875 73.24609375 7.296875 73.24609375 7.296875 71.24609375 C6.554375 71.16359375 5.811875 71.08109375 5.046875 70.99609375 C1.1403598 69.93068051 -0.58137202 67.5629342 -3.140625 64.55859375 C-5.40637877 62.65536058 -6.72964989 62.24609375 -9.703125 62.24609375 C-12.30028644 64.18814209 -12.30028644 64.18814209 -13.96875 65.7734375 C-19.47474689 70.44857449 -26.58918353 73.8263038 -33.765625 74.55859375 C-37.11599265 74.20217166 -38.97451914 73.17216848 -41.703125 71.24609375 C-41.373125 68.27609375 -41.043125 65.30609375 -40.703125 62.24609375 C-40.373125 63.56609375 -40.043125 64.88609375 -39.703125 66.24609375 C-38.75050781 65.69179687 -37.79789063 65.1375 -36.81640625 64.56640625 C-35.54957943 63.83446186 -34.28264673 63.1027007 -33.015625 62.37109375 C-32.38978516 62.00628906 -31.76394531 61.64148438 -31.11914062 61.265625 C-27.72117558 59.30868178 -24.40244881 57.59001636 -20.703125 56.24609375 C-20.703125 55.25609375 -20.703125 54.26609375 -20.703125 53.24609375 C-20.043125 52.91609375 -19.383125 52.58609375 -18.703125 52.24609375 C-17.76570751 50.33777957 -16.83053349 48.42830955 -15.91015625 46.51171875 C-13.26510079 41.54688973 -9.74502001 37.14406371 -5.703125 33.24609375 C-6.81107422 33.44525391 -6.81107422 33.44525391 -7.94140625 33.6484375 C-14.85947611 34.85272666 -21.70185959 35.73659137 -28.703125 36.24609375 C-29.34975098 36.3018457 -29.99637695 36.35759766 -30.66259766 36.41503906 C-52.17361323 38.26576826 -52.17361323 38.26576826 -59.703125 33.24609375 C-60.31252633 30.57996292 -60.0596869 28.92569464 -58.7890625 26.50390625 C-54.73179258 20.40491341 -49.74760386 17.20658551 -42.703125 15.24609375 C-39.30317031 14.97776566 -35.94422949 14.83401222 -32.53710938 14.76757812 C-28.06781068 14.59355985 -25.35213217 13.81169806 -21.703125 11.24609375 C-17.14239588 9.85253763 -12.42654732 10.15347763 -7.703125 10.24609375 C-7.620625 9.52421875 -7.538125 8.80234375 -7.453125 8.05859375 C-6.3007882 3.73733076 -4.74713475 0.43218134 0 0 Z " fill="#A22322" transform="translate(92.703125,26.75390625)"/>
<path d="M0 0 C2.24665257 0.29955368 3.81257787 0.88620799 5.75 2.0625 C7.79404368 5.23076771 7.182379 8.29162692 7 12 C7.66 12 8.32 12 9 12 C9 11.34 9 10.68 9 10 C11.46800047 11.15173355 13.04783565 12.04783565 15 14 C15.24050903 16.29055786 15.24050903 16.29055786 15.22705078 19.18408203 C15.22689972 20.26505157 15.22674866 21.34602112 15.22659302 22.45974731 C15.21627045 23.63060883 15.20594788 24.80147034 15.1953125 26.0078125 C15.1924826 27.20356903 15.18965271 28.39932556 15.18673706 29.63131714 C15.17551305 33.46264519 15.15040431 37.29374222 15.125 41.125 C15.11497308 43.71744455 15.10584673 46.30989275 15.09765625 48.90234375 C15.07556643 55.26831862 15.04102133 61.6341201 15 68 C10.05 68 5.1 68 0 68 C1.485 67.505 1.485 67.505 3 67 C2.21447823 65.03919376 1.42137877 63.08142184 0.625 61.125 C0.18414062 60.03445312 -0.25671875 58.94390625 -0.7109375 57.8203125 C-1.83051338 54.93670638 -1.83051338 54.93670638 -4 53 C-4 52.01 -4 51.02 -4 50 C-5.485 49.505 -5.485 49.505 -7 49 C-8.359375 46.8203125 -8.359375 46.8203125 -9.75 44.125 C-12.60213391 39.10695989 -14.58276821 37.6995237 -20 36 C-21.16343227 33.67313547 -21.19895988 32.15278587 -21.25 29.5625 C-21.28867188 28.38880859 -21.28867188 28.38880859 -21.328125 27.19140625 C-20.922777 24.48426069 -19.95569822 23.82362509 -18 22 C-17.896875 21.01 -17.79375 20.02 -17.6875 19 C-17.460625 18.01 -17.23375 17.02 -17 16 C-15.02699884 14.94773272 -13.02323613 13.95211112 -11 13 C-9.65729179 11.00628175 -8.32346506 9.0065438 -7 7 C-5.34416775 6.30686092 -3.67889021 5.63525576 -2 5 C-1.18553891 2.99427359 -1.18553891 2.99427359 -1 1 C-0.67 0.67 -0.34 0.34 0 0 Z " fill="#B71B1B" transform="translate(113,58)"/>
<path d="M0 0 C3.64230905 0.27187852 6.84542105 1.00193921 10.359375 1.99609375 C11.54660156 2.3209375 12.73382813 2.64578125 13.95703125 2.98046875 C17.45753698 4.30697619 19.70020191 5.55106184 22.296875 8.24609375 C22.63671875 10.46484375 22.63671875 10.46484375 22.234375 12.74609375 C22.11964844 13.49890625 22.00492188 14.25171875 21.88671875 15.02734375 C21.28210083 17.30166811 20.42483695 19.18674413 19.296875 21.24609375 C20.286875 21.57609375 21.276875 21.90609375 22.296875 22.24609375 C24.12109375 24.2421875 24.12109375 24.2421875 25.984375 26.68359375 C26.60699219 27.48667969 27.22960937 28.28976563 27.87109375 29.1171875 C29.296875 31.24609375 29.296875 31.24609375 29.296875 33.24609375 C30.286875 33.57609375 31.276875 33.90609375 32.296875 34.24609375 C35.03315814 36.88103307 35.29053405 38.11927475 35.484375 41.99609375 C35.4225 43.06859375 35.360625 44.14109375 35.296875 45.24609375 C33.316875 43.92609375 31.336875 42.60609375 29.296875 41.24609375 C29.296875 41.90609375 29.296875 42.56609375 29.296875 43.24609375 C28.636875 43.24609375 27.976875 43.24609375 27.296875 43.24609375 C27.1421875 41.35890625 27.1421875 41.35890625 26.984375 39.43359375 C26.65095263 36.82178517 26.41351544 35.42938587 24.984375 33.18359375 C23.29344099 32.02173816 23.29344099 32.02173816 21.109375 32.55859375 C20.51125 32.78546875 19.913125 33.01234375 19.296875 33.24609375 C19.2246875 33.85324219 19.1525 34.46039063 19.078125 35.0859375 C18.00533275 38.05220807 16.59535036 38.46691964 13.796875 39.80859375 C11.35985996 40.93372173 11.35985996 40.93372173 9.296875 42.24609375 C8.966875 43.23609375 8.636875 44.22609375 8.296875 45.24609375 C5.986875 45.24609375 3.676875 45.24609375 1.296875 45.24609375 C-2.05733836 38.26932996 -1.75289605 32.83480014 -0.703125 25.24609375 C-2.559375 25.71015625 -2.559375 25.71015625 -4.453125 26.18359375 C-5.86979167 26.53776042 -7.28645833 26.89192708 -8.703125 27.24609375 C-9.3425 27.47296875 -9.981875 27.69984375 -10.640625 27.93359375 C-14.85829559 28.57263475 -18.93066813 25.88413423 -22.703125 24.24609375 C-23.033125 20.28609375 -23.363125 16.32609375 -23.703125 12.24609375 C-18.21637304 10.37826329 -13.48119524 10.01025415 -7.703125 10.24609375 C-7.620625 9.52421875 -7.538125 8.80234375 -7.453125 8.05859375 C-6.3007882 3.73733076 -4.74713475 0.43218134 0 0 Z " fill="#7E1816" transform="translate(92.703125,26.75390625)"/>
<path d="M0 0 C-0.75 4.75 -0.75 4.75 -3 7 C-3.24315656 9.66949409 -3.24315656 9.66949409 -3.125 12.625 C-3.10695312 13.62789062 -3.08890625 14.63078125 -3.0703125 15.6640625 C-3.04710937 16.43492188 -3.02390625 17.20578125 -3 18 C-1.96875 18.144375 -0.9375 18.28875 0.125 18.4375 C4.72986233 19.70523538 6.32227515 22.85567701 8.640625 26.80859375 C9.85941291 28.98594362 9.85941291 28.98594362 11.44140625 30.34765625 C13.82048144 32.86983371 15.17410158 35.91633223 16.6875 39 C17.00783203 39.6290625 17.32816406 40.258125 17.65820312 40.90625 C19.09311902 43.79443893 20 45.73246861 20 49 C18.68 49 17.36 49 16 49 C15.814375 48.14341797 15.814375 48.14341797 15.625 47.26953125 C13.85415519 40.30789759 10.65019067 34.82354992 6.7421875 28.8828125 C5.2732948 26.45222323 4.44062131 24.7638973 4 22 C3.2575 21.9175 2.515 21.835 1.75 21.75 C-2.1565152 20.68458676 -3.87824702 18.31684045 -6.4375 15.3125 C-8.70325377 13.40926683 -10.02652489 13 -13 13 C-15.59716144 14.94204834 -15.59716144 14.94204834 -17.265625 16.52734375 C-22.77162189 21.20248074 -29.88605853 24.58021005 -37.0625 25.3125 C-40.41286765 24.95607791 -42.27139414 23.92607473 -45 22 C-44.505 17.545 -44.505 17.545 -44 13 C-43.67 14.32 -43.34 15.64 -43 17 C-42.01 16.34 -41.02 15.68 -40 15 C-39.01 15.33 -38.02 15.66 -37 16 C-37.99 16.66 -38.98 17.32 -40 18 C-40.72382467 20.05925139 -40.72382467 20.05925139 -41 22 C-32.51767402 20.26287878 -25.11364553 18.36295739 -18.9375 11.8125 C-17 10 -17 10 -14.375 9.5 C-13.59125 9.335 -12.8075 9.17 -12 9 C-11.29605388 7.68596724 -10.63654342 6.3479743 -10 5 C-4.77272727 0 -4.77272727 0 0 0 Z " fill="#811313" transform="translate(96,76)"/>
<path d="M0 0 C2.32590854 3.63423209 2.16265833 6.77088331 2 11 C1.34 10.34 0.68 9.68 0 9 C0 7.68 0 6.36 0 5 C-0.66 5.33 -1.32 5.66 -2 6 C-3.4465242 6.15067214 -4.8987934 6.24861036 -6.3515625 6.31640625 C-7.20234375 6.35830078 -8.053125 6.40019531 -8.9296875 6.44335938 C-9.81914063 6.48267578 -10.70859375 6.52199219 -11.625 6.5625 C-12.97078125 6.62727539 -12.97078125 6.62727539 -14.34375 6.69335938 C-16.56234283 6.79956861 -18.7810488 6.90161194 -21 7 C-21 9.64 -21 12.28 -21 15 C-21.99 15 -22.98 15 -24 15 C-24 15.66 -24 16.32 -24 17 C-24.99 17.33 -25.98 17.66 -27 18 C-27.33 18.66 -27.66 19.32 -28 20 C-27.34 20 -26.68 20 -26 20 C-26 20.66 -26 21.32 -26 22 C-19.73 22 -13.46 22 -7 22 C-7 22.33 -7 22.66 -7 23 C-27.22298995 25.18467337 -27.22298995 25.18467337 -35 20 C-35.60940133 17.33386917 -35.3565619 15.67960089 -34.0859375 13.2578125 C-30.02604252 7.1548736 -25.04399772 3.97000171 -18 2 C-15.25384415 1.66768456 -12.51321252 1.54124699 -9.75 1.4375 C-4.72137303 1.41589704 -4.72137303 1.41589704 0 0 Z " fill="#7B151B" transform="translate(68,40)"/>
<path d="M0 0 C8.04657906 0.49649105 16.16920042 1.44613361 23 6 C23.39259107 10.23998354 23.32490278 13.36733941 21 17 C13.16008251 16.52960495 6.27928865 13.77062812 -1 11 C-1 9.68 -1 8.36 -1 7 C-0.01 6.67 0.98 6.34 2 6 C1.34 5.67 0.68 5.34 0 5 C0 3.35 0 1.7 0 0 Z " fill="#C4A58D" transform="translate(90,29)"/>
<path d="M0 0 C5.00935883 0.50093588 8.56837549 1.65864597 13 4 C12.38379145 6.79387762 11.75750305 9.58480926 11.125 12.375 C10.95097656 13.1690625 10.77695313 13.963125 10.59765625 14.78125 C10.42363281 15.54179688 10.24960938 16.30234375 10.0703125 17.0859375 C9.91320801 17.7876709 9.75610352 18.4894043 9.59423828 19.21240234 C9 21 9 21 7 23 C2.94738713 23.34490322 1.45245824 23.30163882 -2 21 C-2.25660094 17.92078868 -2.39431504 15.78863007 -1 13 C-0.77049681 10.795636 -0.58924067 8.58607827 -0.4375 6.375 C-0.35371094 5.18648437 -0.26992187 3.99796875 -0.18359375 2.7734375 C-0.12300781 1.85820313 -0.06242187 0.94296875 0 0 Z " fill="#C5A78D" transform="translate(95,44)"/>
<path d="M0 0 C0.33 0.66 0.66 1.32 1 2 C1.66 2.33 2.32 2.66 3 3 C2.67 5.31 2.34 7.62 2 10 C2.66 10 3.32 10 4 10 C4 10.66 4 11.32 4 12 C4.64453125 12.21398437 5.2890625 12.42796875 5.953125 12.6484375 C8 14 8 14 8.609375 16.6015625 C8.65578125 17.59929687 8.7021875 18.59703125 8.75 19.625 C8.80671875 20.62789062 8.8634375 21.63078125 8.921875 22.6640625 C8.96054688 23.82035156 8.96054688 23.82035156 9 25 C11.31 25.33 13.62 25.66 16 26 C15.67 27.65 15.34 29.3 15 31 C15.66 31 16.32 31 17 31 C17.67154933 32.28913487 18.33708859 33.58140204 19 34.875 C19.37125 35.59429687 19.7425 36.31359375 20.125 37.0546875 C21 39 21 39 21 41 C21.66 41.33 22.32 41.66 23 42 C22.67 43.32 22.34 44.64 22 46 C25.3 46.33 28.6 46.66 32 47 C32 47.33 32 47.66 32 48 C27.05 48 22.1 48 17 48 C18.485 47.505 18.485 47.505 20 47 C19.21447823 45.03919376 18.42137877 43.08142184 17.625 41.125 C17.18414062 40.03445312 16.74328125 38.94390625 16.2890625 37.8203125 C15.16948662 34.93670638 15.16948662 34.93670638 13 33 C13 32.01 13 31.02 13 30 C12.01 29.67 11.02 29.34 10 29 C8.640625 26.8203125 8.640625 26.8203125 7.25 24.125 C4.39786609 19.10695989 2.41723179 17.6995237 -3 16 C-4.72617094 12.54765812 -4.50110436 8.77455234 -4 5 C-2 1.9375 -2 1.9375 0 0 Z " fill="#A61717" transform="translate(96,78)"/>
<path d="M0 0 C-1.06139274 3.50259605 -2.55507767 5.73329124 -5 8.375 C-8.06930824 11.78118354 -9.08917232 14.53694435 -10 19 C-10.66 19 -11.32 19 -12 19 C-12.268125 19.763125 -12.53625 20.52625 -12.8125 21.3125 C-13.94424112 23.87380884 -14.91223401 25.19692938 -17 27 C-16.67 27.33 -16.34 27.66 -16 28 C-12.04 24.04 -8.08 20.08 -4 16 C-4 19 -4 19 -6.37109375 21.62890625 C-7.38586139 22.61441454 -8.40835389 23.59201649 -9.4375 24.5625 C-13.17489401 27.92358607 -13.17489401 27.92358607 -16 32 C-16.99 32.309375 -17.98 32.61875 -19 32.9375 C-19.99 33.288125 -20.98 33.63875 -22 34 C-22.33 34.99 -22.66 35.98 -23 37 C-24.65 37 -26.3 37 -28 37 C-27.34 36.01 -26.68 35.02 -26 34 C-25.34 34 -24.68 34 -24 34 C-24.33 33.34 -24.66 32.68 -25 32 C-27.475 32.495 -27.475 32.495 -30 33 C-30 32.34 -30 31.68 -30 31 C-27.8828125 29.4921875 -27.8828125 29.4921875 -25.125 27.875 C-24.22007813 27.33617188 -23.31515625 26.79734375 -22.3828125 26.2421875 C-20 25 -20 25 -18 25 C-18 24.01 -18 23.02 -18 22 C-17.34 21.67 -16.68 21.34 -16 21 C-15.06258251 19.09168582 -14.12740849 17.1822158 -13.20703125 15.265625 C-10.56197579 10.30079598 -7.04189501 5.89796996 -3 2 C-3.72703125 2.144375 -4.4540625 2.28875 -5.203125 2.4375 C-12.55348796 3.79449009 -19.53387397 4.23828062 -27 4 C-27 3.67 -27 3.34 -27 3 C-23.43826523 2.4944461 -19.87550181 1.99653886 -16.3125 1.5 C-14.80139648 1.28537109 -14.80139648 1.28537109 -13.25976562 1.06640625 C-11.79506836 0.86337891 -11.79506836 0.86337891 -10.30078125 0.65625 C-9.40528564 0.53056641 -8.50979004 0.40488281 -7.5871582 0.27539062 C-5.03602639 0.00383484 -2.5633257 -0.04847897 0 0 Z M-2 9 C-0.68 9.33 0.64 9.66 2 10 C1.6875 11.9375 1.6875 11.9375 1 14 C0.01 14.33 -0.98 14.66 -2 15 C-2 13.02 -2 11.04 -2 9 Z " fill="#AB1917" transform="translate(90,58)"/>
<path d="M0 0 C0.33 0 0.66 0 1 0 C1.495 2.475 1.495 2.475 2 5 C4.31 5.33 6.62 5.66 9 6 C6 8 6 8 4 8 C4 8.66 4 9.32 4 10 C2.948125 10.3403125 2.948125 10.3403125 1.875 10.6875 C-2.09212838 12.49858035 -5.9989082 14.9978164 -8 19 C-13.42307692 22 -13.42307692 22 -16 22 C-16.226875 22.598125 -16.45375 23.19625 -16.6875 23.8125 C-19.11714775 27.86191292 -23.62283546 29.60726583 -28 31 C-30.99207198 31.44401743 -33.98593464 31.75046953 -37 32 C-36.25 27.25 -36.25 27.25 -34 25 C-30.99580359 23.9986012 -28.12290635 23.48578543 -25 23 C-26 26 -26 26 -29 28 C-27.68 28.33 -26.36 28.66 -25 29 C-24.855625 28.360625 -24.71125 27.72125 -24.5625 27.0625 C-24 25 -24 25 -23 24 C-21.33382885 23.95936168 -19.66611905 23.957279 -18 24 C-17.77183594 23.443125 -17.54367188 22.88625 -17.30859375 22.3125 C-15.63466461 19.35439238 -13.50800628 17.35572999 -11.0625 15 C-7.46703201 11.53512594 -7.46703201 11.53512594 -4.30859375 7.6875 C-3.87675781 7.130625 -3.44492188 6.57375 -3 6 C-2.34 6 -1.68 6 -1 6 C-0.67 4.02 -0.34 2.04 0 0 Z M10 2 C10.66 2.33 11.32 2.66 12 3 C11.01 3.99 10.02 4.98 9 6 C9.33 4.68 9.66 3.36 10 2 Z " fill="#9F1819" transform="translate(92,66)"/>
<path d="M0 0 C0.33 1.98 0.66 3.96 1 6 C2.423125 6.185625 2.423125 6.185625 3.875 6.375 C7 7 7 7 9 9 C4.38 9 -0.24 9 -5 9 C-5.33 8.34 -5.66 7.68 -6 7 C-6.66 7.66 -7.32 8.32 -8 9 C-13.43455304 10.99636642 -18.24437157 11.23492361 -24 11 C-23.01 10.67 -22.02 10.34 -21 10 C-21 7.36 -21 4.72 -21 2 C-17.87517892 1.66497499 -14.75011534 1.33226801 -11.625 1 C-10.73554687 0.90460937 -9.84609375 0.80921875 -8.9296875 0.7109375 C-7.65351562 0.57558594 -7.65351562 0.57558594 -6.3515625 0.4375 C-5.17327881 0.31181641 -5.17327881 0.31181641 -3.97119141 0.18359375 C-2 0 -2 0 0 0 Z " fill="#A41717" transform="translate(68,45)"/>
<path d="M0 0 C0.33 0.99 0.66 1.98 1 3 C1.74765625 2.86980469 2.4953125 2.73960938 3.265625 2.60546875 C6.23753667 2.18924552 8.99923444 1.87910585 12 2 C14.6875 4.4375 14.6875 4.4375 16 7 C13.36 6.67 10.72 6.34 8 6 C8 6.66 8 7.32 8 8 C-2.03442033 8.87801178 -11.93605753 9.1176305 -22 9 C-21.67 8.01 -21.34 7.02 -21 6 C-20.2265625 5.89042969 -19.453125 5.78085937 -18.65625 5.66796875 C-8.64301279 4.56743356 -8.64301279 4.56743356 0 0 Z " fill="#BD1D1C" transform="translate(62,51)"/>
<path d="M0 0 C3.64230905 0.27187852 6.84542105 1.00193921 10.359375 1.99609375 C11.54660156 2.3209375 12.73382813 2.64578125 13.95703125 2.98046875 C17.45754012 4.30697737 19.69788275 5.55375395 22.296875 8.24609375 C22.99779695 12.39321531 21.8945455 16.26591412 19.734375 19.80859375 C19.26 20.28296875 18.785625 20.75734375 18.296875 21.24609375 C12.42877993 20.72215669 7.74813759 19.48500517 2.296875 17.24609375 C2.296875 21.53609375 2.296875 25.82609375 2.296875 30.24609375 C1.966875 30.24609375 1.636875 30.24609375 1.296875 30.24609375 C1.296875 25.62609375 1.296875 21.00609375 1.296875 16.24609375 C5.41057068 15.21766983 6.10044475 15.25945538 9.796875 16.68359375 C13.04210822 17.92278383 14.68034407 18.24609375 18.296875 18.24609375 C19.4546256 14.77284194 19.36554152 11.88541927 19.296875 8.24609375 C16.54141802 6.75945392 14.02676812 5.83107085 10.96875 5.17578125 C10.16953125 5.00175781 9.3703125 4.82773437 8.546875 4.6484375 C7.721875 4.47441406 6.896875 4.30039062 6.046875 4.12109375 C5.20640625 3.93933594 4.3659375 3.75757813 3.5 3.5703125 C1.43332389 3.12409834 -0.63476777 2.6844493 -2.703125 2.24609375 C-2.703125 3.89609375 -2.703125 5.54609375 -2.703125 7.24609375 C-1.713125 7.57609375 -0.723125 7.90609375 0.296875 8.24609375 C-1.023125 8.57609375 -2.343125 8.90609375 -3.703125 9.24609375 C-3.703125 10.23609375 -3.703125 11.22609375 -3.703125 12.24609375 C-7.993125 11.91609375 -12.283125 11.58609375 -16.703125 11.24609375 C-16.703125 10.91609375 -16.703125 10.58609375 -16.703125 10.24609375 C-13.733125 10.24609375 -10.763125 10.24609375 -7.703125 10.24609375 C-7.620625 9.52421875 -7.538125 8.80234375 -7.453125 8.05859375 C-6.3007882 3.73733076 -4.74713475 0.43218134 0 0 Z " fill="#6B3F47" transform="translate(92.703125,26.75390625)"/>
<path d="M0 0 C6.19039555 0.13033971 11.42994124 1.76596244 17.04077148 4.37890625 C16.05077148 4.70890625 15.06077148 5.03890625 14.04077148 5.37890625 C14.04077148 7.02890625 14.04077148 8.67890625 14.04077148 10.37890625 C8.89964424 9.5879636 4.32592397 7.54811878 -0.43188477 5.55078125 C-3.92224206 4.11233097 -7.22216976 2.95383837 -10.95922852 2.37890625 C-7.80764056 -0.77268171 -4.29082732 0.00829045 0 0 Z " fill="#771917" transform="translate(79.959228515625,37.62109375)"/>
<path d="M0 0 C4.2844202 0.50404943 8.13718186 1.01340781 12 3 C12.99 4.485 12.99 4.485 14 6 C11.94766315 8.2477975 10.99332739 9.0022242 8 10 C8 10.99 8 11.98 8 13 C5.69 12.34 3.38 11.68 1 11 C0.67 7.37 0.34 3.74 0 0 Z " fill="#220908" transform="translate(69,40)"/>
<path d="M0 0 C2.32590854 3.63423209 2.16265833 6.77088331 2 11 C1.34 10.34 0.68 9.68 0 9 C0 7.68 0 6.36 0 5 C-0.99 5.495 -0.99 5.495 -2 6 C-8.97561022 6.98094519 -15.96763321 7.13729133 -23 7 C-22.67 9.31 -22.34 11.62 -22 14 C-22.66 14 -23.32 14 -24 14 C-24 12.35 -24 10.7 -24 9 C-24.99 8.67 -25.98 8.34 -27 8 C-24.03 6.68 -21.06 5.36 -18 4 C-18 3.34 -18 2.68 -18 2 C-16.86820313 1.93941406 -15.73640625 1.87882812 -14.5703125 1.81640625 C-13.08852855 1.73200083 -11.6067584 1.64735283 -10.125 1.5625 C-9.37863281 1.52318359 -8.63226563 1.48386719 -7.86328125 1.44335938 C-3.80013136 1.28426376 -3.80013136 1.28426376 0 0 Z " fill="#7C202C" transform="translate(68,40)"/>
<path d="M0 0 C0.33 1.32 0.66 2.64 1 4 C3.31 4.33 5.62 4.66 8 5 C7.67 6.65 7.34 8.3 7 10 C7.66 10 8.32 10 9 10 C9.67154933 11.28913487 10.33708859 12.58140204 11 13.875 C11.37125 14.59429687 11.7425 15.31359375 12.125 16.0546875 C13 18 13 18 13 20 C13.66 20.33 14.32 20.66 15 21 C14.67 22.32 14.34 23.64 14 25 C17.3 25.33 20.6 25.66 24 26 C24 26.33 24 26.66 24 27 C19.05 27 14.1 27 9 27 C9.99 26.67 10.98 26.34 12 26 C11.21447823 24.03919376 10.42137877 22.08142184 9.625 20.125 C9.18414062 19.03445312 8.74328125 17.94390625 8.2890625 16.8203125 C7.16948662 13.93670638 7.16948662 13.93670638 5 12 C5 11.01 5 10.02 5 9 C4.01 8.67 3.02 8.34 2 8 C-0.1519437 4.77208445 -0.20086443 3.71599191 0 0 Z " fill="#941C1C" transform="translate(104,99)"/>
<path d="M0 0 C5.94 0 11.88 0 18 0 C17.67 2.64 17.34 5.28 17 8 C16.01 8.495 16.01 8.495 15 9 C14.34 7.68 13.68 6.36 13 5 C12.34 5 11.68 5 11 5 C10.67 5.99 10.34 6.98 10 8 C9.01 8 8.02 8 7 8 C6.34 7.01 5.68 6.02 5 5 C4.01 5 3.02 5 2 5 C1.34 3.35 0.68 1.7 0 0 Z " fill="#BC98B2" transform="translate(43,63)"/>
<path d="M0 0 C0.99 0.33 1.98 0.66 3 1 C2.67 2.32 2.34 3.64 2 5 C2 4.34 2 3.68 2 3 C1.34 3 0.68 3 0 3 C0.1546875 3.82757813 0.309375 4.65515625 0.46875 5.5078125 C-0.25057677 10.86679695 -3.65538613 13.30054818 -7.5 16.875 C-8.21542969 17.56335938 -8.93085937 18.25171875 -9.66796875 18.9609375 C-11.43256007 20.65494516 -13.20957924 22.33338493 -15 24 C-15.33 23.01 -15.66 22.02 -16 21 C-14.4045651 18.94272868 -12.73473712 16.94125344 -11 15 C-10.67 14.34 -10.34 13.68 -10 13 C-9.34 13 -8.68 13 -8 13 C-8.103125 12.236875 -8.20625 11.47375 -8.3125 10.6875 C-8.1578125 9.3571875 -8.1578125 9.3571875 -8 8 C-6.36935236 6.94228261 -4.69719127 5.94726954 -3 5 C-1.19203897 2.43389334 -1.19203897 2.43389334 0 0 Z " fill="#B91E1D" transform="translate(88,64)"/>
<path d="M0 0 C4 1.33333333 8 2.66666667 12 4 C12 4.66 12 5.32 12 6 C10.41800369 6.64910154 8.83434276 7.29414694 7.25 7.9375 C6.36828125 8.29714844 5.4865625 8.65679687 4.578125 9.02734375 C-1.28358209 11.23880597 -1.28358209 11.23880597 -5 10 C-5 6 -5 6 -2.5 3.3125 C-1.675 2.549375 -0.85 1.78625 0 1 C0 0.67 0 0.34 0 0 Z " fill="#140103" transform="translate(82,44)"/>
<path d="M0 0 C-1.00784271 3.32588096 -2.39253784 5.58524188 -4.6875 8.125 C-8.14871621 11.96796799 -10.73167057 16.21945095 -13.38671875 20.64453125 C-15 23 -15 23 -18 25 C-18 24.01 -18 23.02 -18 22 C-17.34 21.67 -16.68 21.34 -16 21 C-15.06258251 19.09168582 -14.12740849 17.1822158 -13.20703125 15.265625 C-10.56197579 10.30079598 -7.04189501 5.89796996 -3 2 C-3.72703125 2.144375 -4.4540625 2.28875 -5.203125 2.4375 C-12.55348796 3.79449009 -19.53387397 4.23828062 -27 4 C-27 3.67 -27 3.34 -27 3 C-23.43826523 2.4944461 -19.87550181 1.99653886 -16.3125 1.5 C-14.80139648 1.28537109 -14.80139648 1.28537109 -13.25976562 1.06640625 C-11.79506836 0.86337891 -11.79506836 0.86337891 -10.30078125 0.65625 C-9.40528564 0.53056641 -8.50979004 0.40488281 -7.5871582 0.27539062 C-5.03602639 0.00383484 -2.5633257 -0.04847897 0 0 Z " fill="#650D04" transform="translate(90,58)"/>
<path d="M0 0 C2.475 0.99 2.475 0.99 5 2 C5 3.32 5 4.64 5 6 C4.34 6 3.68 6 3 6 C3 6.99 3 7.98 3 9 C1.02 9.99 -0.96 10.98 -3 12 C-4.65 10.68 -6.3 9.36 -8 8 C-8.33 8.66 -8.66 9.32 -9 10 C-9 8.68 -9 7.36 -9 6 C-6.02588876 4.76078698 -3.14737182 3.69941596 0 3 C0 2.01 0 1.02 0 0 Z " fill="#B381A9" transform="translate(69,74)"/>
<path d="M0 0 C3.69346926 1.23115642 3.86090074 2.12880649 5.5625 5.5 C7.11619318 8.90258539 7.11619318 8.90258539 10 11 C11.28592275 13.27509409 12.47504283 15.53301405 13.625 17.875 C13.94984375 18.51308594 14.2746875 19.15117188 14.609375 19.80859375 C16.05782082 22.7237431 17 24.70246267 17 28 C15.68 28 14.36 28 13 28 C12.814375 27.14341797 12.814375 27.14341797 12.625 26.26953125 C10.86651051 19.35646946 7.70542444 13.89041613 3.83984375 7.98046875 C2.2174574 5.35227176 1.03437616 2.89946893 0 0 Z " fill="#4D0F1F" transform="translate(99,97)"/>
<path d="M0 0 C0 1.32 0 2.64 0 4 C1.32 4 2.64 4 4 4 C4.33 5.98 4.66 7.96 5 10 C7.31 10.66 9.62 11.32 12 12 C11.67 12.66 11.34 13.32 11 14 C5.41215324 12.6340819 5.41215324 12.6340819 3.375 9.5 C2.694375 8.2625 2.694375 8.2625 2 7 C-0.16111937 5.46630238 -1.29414536 4.95446099 -3.9375 5.125 C-6.6901433 6.29278807 -8.67609912 8.1295432 -11 10 C-13.8125 11.25 -13.8125 11.25 -16 12 C-16 11.01 -16 10.02 -16 9 C-14.68 9 -13.36 9 -12 9 C-11.67 8.01 -11.34 7.02 -11 6 C-9.00390625 4.39453125 -9.00390625 4.39453125 -6.5625 2.8125 C-5.75941406 2.28269531 -4.95632812 1.75289063 -4.12890625 1.20703125 C-2 0 -2 0 0 0 Z " fill="#591022" transform="translate(88,84)"/>
<path d="M0 0 C3.76828271 0.26453561 5.55120723 0.5744724 8.3359375 3.21484375 C9.00882813 4.11332031 9.68171875 5.01179688 10.375 5.9375 C11.06335938 6.83339844 11.75171875 7.72929688 12.4609375 8.65234375 C14 11 14 11 14 13 C14.99 13.33 15.98 13.66 17 14 C19.24064723 16.32363416 19.96556146 17.49490144 20.1875 20.75 C20.0946875 21.86375 20.0946875 21.86375 20 23 C19.505 22.360625 19.01 21.72125 18.5 21.0625 C15.74860458 17.69204061 12.8704539 14.46056028 9.9609375 11.2265625 C8.29915551 9.33967857 6.73544079 7.41698792 5.1875 5.4375 C4.1046875 4.2309375 4.1046875 4.2309375 3 3 C2.01 3 1.02 3 0 3 C0 2.01 0 1.02 0 0 Z " fill="#431120" transform="translate(108,47)"/>
<path d="M0 0 C0 0.99 0 1.98 0 3 C-1.65788785 4.34423339 -3.32576317 5.67618483 -5 7 C-6.02304948 8.65261839 -7.02616054 10.31791365 -8 12 C-8.99 12.66 -9.98 13.32 -11 14 C-11.33 13.34 -11.66 12.68 -12 12 C-11.34 12 -10.68 12 -10 12 C-10.33 8.7 -10.66 5.4 -11 2 C-5.555 1.01 -5.555 1.01 0 0 Z " fill="#E3902E" transform="translate(87,59)"/>
<path d="M0 0 C-0.05800781 1.04800781 -0.11601563 2.09601562 -0.17578125 3.17578125 C-0.22268131 4.554643 -0.26818122 5.93355287 -0.3125 7.3125 C-0.35439453 8.00279297 -0.39628906 8.69308594 -0.43945312 9.40429688 C-0.54841587 11.69293125 -0.54841587 11.69293125 0 15 C2.4488651 16.76129799 2.4488651 16.76129799 5 18 C5 19.32 5 20.64 5 22 C3.35 22 1.7 22 0 22 C-3.35421336 15.02323621 -3.04977105 9.58870639 -2 2 C-3.32 1.67 -4.64 1.34 -6 1 C-4 0 -4 0 0 0 Z " fill="#6E1E16" transform="translate(94,50)"/>
<path d="M0 0 C0.66 0 1.32 0 2 0 C2.33 0.99 2.66 1.98 3 3 C3.66 2.34 4.32 1.68 5 1 C5 1.66 5 2.32 5 3 C5.66 3.33 6.32 3.66 7 4 C5.54462432 4.83848804 4.08559627 5.67063934 2.625 6.5 C1.40683594 7.19609375 1.40683594 7.19609375 0.1640625 7.90625 C-2 9 -2 9 -4 9 C-4.66 9.66 -5.32 10.32 -6 11 C-7 10 -7 10 -7.0625 6.9375 C-7.041875 5.968125 -7.02125 4.99875 -7 4 C-5.35 4 -3.7 4 -2 4 C-1.34 2.68 -0.68 1.36 0 0 Z " fill="#BB88AE" transform="translate(57,84)"/>
<path d="M0 0 C0.33 1.32 0.66 2.64 1 4 C1.99 3.34 2.98 2.68 4 2 C4.99 2.33 5.98 2.66 7 3 C6.01 3.66 5.02 4.32 4 5 C3.67 6.32 3.34 7.64 3 9 C6.3 9 9.6 9 13 9 C10 12 10 12 7.125 12.375 C3.68900864 11.96268104 1.80219303 10.97801861 -1 9 C-0.67 6.03 -0.34 3.06 0 0 Z " fill="#632031" transform="translate(52,89)"/>
<path d="M0 0 C-4.93654267 6.70459519 -4.93654267 6.70459519 -9.375 7.9375 C-10.24125 7.958125 -11.1075 7.97875 -12 8 C-11.25 3.25 -11.25 3.25 -9 1 C-2.4 -1.2 -2.4 -1.2 0 0 Z " fill="#AA1D22" transform="translate(67,90)"/>
<path d="M0 0 C1.07765625 0.00902344 2.1553125 0.01804688 3.265625 0.02734375 C4.08546875 0.03894531 4.9053125 0.05054688 5.75 0.0625 C5.75 0.3925 5.75 0.7225 5.75 1.0625 C4.86957031 1.18367188 3.98914063 1.30484375 3.08203125 1.4296875 C1.92058594 1.59726562 0.75914063 1.76484375 -0.4375 1.9375 C-2.16033203 2.18113281 -2.16033203 2.18113281 -3.91796875 2.4296875 C-6.93724625 3.00310245 -9.45575848 3.81009043 -12.25 5.0625 C-11.26 6.0525 -10.27 7.0425 -9.25 8.0625 C-9.58 9.0525 -9.91 10.0425 -10.25 11.0625 C-11.57 11.0625 -12.89 11.0625 -14.25 11.0625 C-14.58 9.0825 -14.91 7.1025 -15.25 5.0625 C-9.99364093 0.5361908 -6.85446578 -0.07450506 0 0 Z " fill="#570E22" transform="translate(54.25,42.9375)"/>
<path d="M0 0 C0.33 0 0.66 0 1 0 C1.33 2.31 1.66 4.62 2 7 C2.99 7 3.98 7 5 7 C5.33 6.01 5.66 5.02 6 4 C6.33 4.99 6.66 5.98 7 7 C5.89932004 7.81721717 4.79430269 8.62859451 3.6875 9.4375 C3.07261719 9.88996094 2.45773438 10.34242187 1.82421875 10.80859375 C0 12 0 12 -3 13 C-3.33 13.99 -3.66 14.98 -4 16 C-4.66 16 -5.32 16 -6 16 C-6.33 14.35 -6.66 12.7 -7 11 C-6.21625 10.855625 -5.4325 10.71125 -4.625 10.5625 C-1.84843237 9.28463143 -1.84843237 9.28463143 -1.22265625 6.86328125 C-0.73164391 4.58025309 -0.31887599 2.31304073 0 0 Z " fill="#7E2120" transform="translate(105,56)"/>
<path d="M0 0 C5.45479185 0.56820748 9.91059256 1.94637945 15 4 C14.01 4.33 13.02 4.66 12 5 C12 6.65 12 8.3 12 10 C8.44219804 9.39009109 5.3171411 8.4216319 2 7 C5.05263664 6.01879536 6.94736336 6.01879536 10 7 C10 6.01 10 5.02 10 4 C7.98177083 3.54427083 5.96354167 3.08854167 3.9453125 2.6328125 C2 2 2 2 0 0 Z " fill="#541812" transform="translate(82,38)"/>
<path d="M0 0 C1.32 0 2.64 0 4 0 C4.226875 0.78375 4.45375 1.5675 4.6875 2.375 C5.78125 5.21875 5.78125 5.21875 8.625 6.3125 C9.800625 6.6528125 9.800625 6.6528125 11 7 C11.33 9.31 11.66 11.62 12 14 C11.484375 13.236875 10.96875 12.47375 10.4375 11.6875 C8.12025884 8.73103278 8.12025884 8.73103278 4.3125 7.5625 C3.219375 7.046875 2.12625 6.53125 1 6 C0.0625 2.8125 0.0625 2.8125 0 0 Z " fill="#8D1818" transform="translate(92,88)"/>
<path d="M0 0 C0.66 0.33 1.32 0.66 2 1 C2 1.66 2 2.32 2 3 C2.66 3.33 3.32 3.66 4 4 C3.67 5.32 3.34 6.64 3 8 C6.3 8.33 9.6 8.66 13 9 C13 9.33 13 9.66 13 10 C8.05 10 3.1 10 -2 10 C-1.01 9.67 -0.02 9.34 1 9 C0.67 6.03 0.34 3.06 0 0 Z " fill="#9B2533" transform="translate(115,116)"/>
<path d="M0 0 C2.475 0.495 2.475 0.495 5 1 C5.33 3.64 5.66 6.28 6 9 C4.35 8.67 2.7 8.34 1 8 C0.67 5.36 0.34 2.72 0 0 Z " fill="#8F8785" transform="translate(71,42)"/>
<path d="M0 0 C0.66 0.33 1.32 0.66 2 1 C1.01 2.485 1.01 2.485 0 4 C0 4.66 0 5.32 0 6 C-3.3 6.66 -6.6 7.32 -10 8 C-10 7.34 -10 6.68 -10 6 C-7.8828125 4.45703125 -7.8828125 4.45703125 -5.125 2.8125 C-4.22007813 2.26207031 -3.31515625 1.71164063 -2.3828125 1.14453125 C-1.20332031 0.57798828 -1.20332031 0.57798828 0 0 Z " fill="#7F1516" transform="translate(70,83)"/>
<path d="M0 0 C0.33 0.99 0.66 1.98 1 3 C2.32 3 3.64 3 5 3 C5.33 4.98 5.66 6.96 6 9 C8.31 9.66 10.62 10.32 13 11 C12.67 11.66 12.34 12.32 12 13 C6.42477876 11.63716814 6.42477876 11.63716814 4.375 8.5625 C3.92125 7.716875 3.4675 6.87125 3 6 C0.93045153 4.21655822 0.93045153 4.21655822 -1 3 C-0.67 2.01 -0.34 1.02 0 0 Z " fill="#64192F" transform="translate(87,85)"/>
<path d="M0 0 C0.66 0.66 1.32 1.32 2 2 C1.75 4.0625 1.75 4.0625 1 6 C0.01 6.495 0.01 6.495 -1 7 C-1.33 7.66 -1.66 8.32 -2 9 C-3 11 -3 11 -5 12 C-5.58305225 8.15185513 -4.7002883 6.23691365 -2.5 3.1875 C-1.67780256 2.11635945 -0.84795951 1.0508641 0 0 Z " fill="#771F37" transform="translate(38,48)"/>
<path d="M0 0 C4.56454251 0.54339792 7.9728176 1.79463821 12 4 C11.34 6.64 10.68 9.28 10 12 C9.67 12 9.34 12 9 12 C9 9.36 9 6.72 9 4 C7.68 4 6.36 4 5 4 C5 3.34 5 2.68 5 2 C3.68 2.33 2.36 2.66 1 3 C0.67 2.01 0.34 1.02 0 0 Z " fill="#9D8370" transform="translate(96,44)"/>
<path d="M0 0 C1.65 0 3.3 0 5 0 C4.4140625 6.15234375 4.4140625 6.15234375 4 8 C3.01 8.495 3.01 8.495 2 9 C0.14223235 5.86501708 -0.20140476 3.62528568 0 0 Z " fill="#D0AFC6" transform="translate(56,63)"/>
<path d="M0 0 C1.98 0 3.96 0 6 0 C4.68 0.33 3.36 0.66 2 1 C2.309375 1.598125 2.61875 2.19625 2.9375 2.8125 C4 5 4 5 5 8 C3.35 9.32 1.7 10.64 0 12 C-0.33 11.34 -0.66 10.68 -1 10 C-0.34 10 0.32 10 1 10 C0.67 6.7 0.34 3.4 0 0 Z " fill="#9E5038" transform="translate(76,61)"/>
<path d="M0 0 C1.84765625 0.33984375 1.84765625 0.33984375 4.0625 0.9375 C5.16271484 1.22947266 5.16271484 1.22947266 6.28515625 1.52734375 C7.13400391 1.76130859 7.13400391 1.76130859 8 2 C8 2.99 8 3.98 8 5 C5.03 4.67 2.06 4.34 -1 4 C-1 1 -1 1 0 0 Z " fill="#7C1A15" transform="translate(84,40)"/>
<path d="M0 0 C0.66 0.33 1.32 0.66 2 1 C-3.40303965 5.67289916 -8.04769059 5.44534366 -15 5 C-15.66 3.68 -16.32 2.36 -17 1 C-16.195625 1.495 -16.195625 1.495 -15.375 2 C-11.83400426 3.49094558 -8.76644322 3.67117467 -5.12890625 2.2890625 C-4.50886719 2.00804688 -3.88882813 1.72703125 -3.25 1.4375 C-1.64125 0.7259375 -1.64125 0.7259375 0 0 Z " fill="#BE70A7" transform="translate(69,97)"/>
<path d="M0 0 C0.33 0.99 0.66 1.98 1 3 C-0.36328125 5.4453125 -0.36328125 5.4453125 -2.3125 8.125 C-3.26576172 9.45917969 -3.26576172 9.45917969 -4.23828125 10.8203125 C-6 13 -6 13 -8 14 C-8 13.01 -8 12.02 -8 11 C-7.34 10.67 -6.68 10.34 -6 10 C-4.94824948 8.18533883 -4.94824948 8.18533883 -4 6.0625 C-2.81586997 3.51384512 -2.01242841 2.01242841 0 0 Z " fill="#450808" transform="translate(80,69)"/>
<path d="M0 0 C0.33 1.32 0.66 2.64 1 4 C0.34 4 -0.32 4 -1 4 C-1.268125 4.763125 -1.53625 5.52625 -1.8125 6.3125 C-2.96603641 8.92313504 -3.98629865 10.07385089 -6 12 C-6.33 12.99 -6.66 13.98 -7 15 C-7.99 14.67 -8.98 14.34 -10 14 C-9.61328125 13.57589844 -9.2265625 13.15179688 -8.828125 12.71484375 C-5.2605903 8.69695194 -2.51826571 4.74596229 0 0 Z " fill="#9A2224" transform="translate(79,73)"/>
<path d="M0 0 C2.13586678 3.20380017 2.23132175 4.01939967 2.125 7.6875 C2.10695313 8.49574219 2.08890625 9.30398437 2.0703125 10.13671875 C2.04710938 10.75160156 2.02390625 11.36648437 2 12 C1.34 12 0.68 12 0 12 C-1.49498913 9.01002175 -1.11577446 6.29957225 -1 3 C-0.67 2.01 -0.34 1.02 0 0 Z " fill="#360804" transform="translate(107,51)"/>
<path d="M0 0 C0.103125 0.639375 0.20625 1.27875 0.3125 1.9375 C0.539375 2.618125 0.76625 3.29875 1 4 C1.99 4.33 2.98 4.66 4 5 C2.68 5.33 1.36 5.66 0 6 C0 6.99 0 7.98 0 9 C-0.99 9 -1.98 9 -3 9 C-2.5020163 5.26512223 -2.12508244 3.18762365 0 0 Z " fill="#A34F4A" transform="translate(89,30)"/>
<path d="M0 0 C0 2.31 0 4.62 0 7 C-0.66 6.34 -1.32 5.68 -2 5 C-2 3.68 -2 2.36 -2 1 C-2.99 1.495 -2.99 1.495 -4 2 C-6.6723621 2.13415472 -9.32250488 2.04318541 -12 2 C-12 1.67 -12 1.34 -12 1 C-3.96428571 -1.27678571 -3.96428571 -1.27678571 0 0 Z " fill="#8E191C" transform="translate(70,44)"/>
<path d="M0 0 C1.17539996 0.92652701 2.34010577 1.86663387 3.5 2.8125 C4.1496875 3.33457031 4.799375 3.85664062 5.46875 4.39453125 C7 6 7 6 7 9 C5.35 7.68 3.7 6.36 2 5 C2 5.66 2 6.32 2 7 C1.34 7 0.68 7 0 7 C0 4.69 0 2.38 0 0 Z " fill="#90151A" transform="translate(120,63)"/>
<path d="M0 0 C3.66666667 3.66666667 7.33333333 7.33333333 11 11 C10.67 11.66 10.34 12.32 10 13 C8.32438946 11.40517782 6.65974066 9.79883156 5 8.1875 C3.6078125 6.84751953 3.6078125 6.84751953 2.1875 5.48046875 C0 3 0 3 0 0 Z " fill="#741A1F" transform="translate(116,56)"/>
<path d="M0 0 C0.33 0.66 0.66 1.32 1 2 C1.99 2 2.98 2 4 2 C4.33 2.99 4.66 3.98 5 5 C4.67 5.66 4.34 6.32 4 7 C2.68 7 1.36 7 0 7 C-0.38133299 5.0085944 -0.71325582 3.00720923 -1 1 C-0.67 0.67 -0.34 0.34 0 0 Z " fill="#400408" transform="translate(40,47)"/>
<path d="M0 0 C2.475 0.99 2.475 0.99 5 2 C5 2.99 5 3.98 5 5 C2.36 5 -0.28 5 -3 5 C-3 4.34 -3 3.68 -3 3 C-2.01 3 -1.02 3 0 3 C0 2.01 0 1.02 0 0 Z " fill="#BE8EB8" transform="translate(69,74)"/>
<path d="M0 0 C2.475 0.495 2.475 0.495 5 1 C5 2.32 5 3.64 5 5 C3.35 5 1.7 5 0 5 C0 3.35 0 1.7 0 0 Z " fill="#350F05" transform="translate(94,67)"/>
<path d="M0 0 C1.32 0.66 2.64 1.32 4 2 C4 2.99 4 3.98 4 5 C1.69 5 -0.62 5 -3 5 C-2.34 4.67 -1.68 4.34 -1 4 C-0.34786708 1.97536745 -0.34786708 1.97536745 0 0 Z " fill="#BE77B5" transform="translate(54,67)"/>
<path d="M0 0 C3.9492568 0.55105909 7.34920174 1.38935371 11 3 C11 3.33 11 3.66 11 4 C8.36 4 5.72 4 3 4 C3 3.34 3 2.68 3 2 C2.01 2 1.02 2 0 2 C0 1.34 0 0.68 0 0 Z " fill="#1F0809" transform="translate(70,40)"/>
<path d="M0 0 C0.66 0 1.32 0 2 0 C3.4606285 2.64738916 4 3.89448334 4 7 C2.68 7 1.36 7 0 7 C0 4.69 0 2.38 0 0 Z " fill="#340B16" transform="translate(112,118)"/>
<path d="M0 0 C0.66 0 1.32 0 2 0 C2 3 2 6 2 9 C0.68 8.34 -0.64 7.68 -2 7 C-1.34 4.69 -0.68 2.38 0 0 Z " fill="#CC9ABB" transform="translate(75,66)"/>
<path d="M0 0 C0.90492187 0.02320312 1.80984375 0.04640625 2.7421875 0.0703125 C4.10730469 0.09738281 4.10730469 0.09738281 5.5 0.125 C6.19867188 0.14820312 6.89734375 0.17140625 7.6171875 0.1953125 C6.41015625 1.71484375 6.41015625 1.71484375 4.6171875 3.1953125 C2.35546875 3.26953125 2.35546875 3.26953125 -0.0703125 2.8828125 C-1.28267578 2.70298828 -1.28267578 2.70298828 -2.51953125 2.51953125 C-3.13441406 2.41253906 -3.74929687 2.30554688 -4.3828125 2.1953125 C-2.3828125 0.1953125 -2.3828125 0.1953125 0 0 Z " fill="#761627" transform="translate(63.3828125,95.8046875)"/>
<path d="M0 0 C2.4375 0.75 2.4375 0.75 5 2 C5.8125 4.125 5.8125 4.125 6 6 C4.68 6.33 3.36 6.66 2 7 C1.7834375 5.824375 1.7834375 5.824375 1.5625 4.625 C1.12201075 2.03578982 1.12201075 2.03578982 0 0 Z " fill="#C16BA6" transform="translate(86,89)"/>
<path d="M0 0 C0.99773437 0.02320313 1.99546875 0.04640625 3.0234375 0.0703125 C4.52777344 0.09738281 4.52777344 0.09738281 6.0625 0.125 C6.83335938 0.14820313 7.60421875 0.17140625 8.3984375 0.1953125 C8.3984375 0.5253125 8.3984375 0.8553125 8.3984375 1.1953125 C6.4184375 1.1953125 4.4384375 1.1953125 2.3984375 1.1953125 C2.3984375 1.8553125 2.3984375 2.5153125 2.3984375 3.1953125 C0.0884375 2.8653125 -2.2215625 2.5353125 -4.6015625 2.1953125 C-2.6015625 0.1953125 -2.6015625 0.1953125 0 0 Z " fill="#611A2D" transform="translate(73.6015625,37.8046875)"/>
<path d="M0 0 C0.66 0.33 1.32 0.66 2 1 C1.67 1.66 1.34 2.32 1 3 C-0.32 3 -1.64 3 -3 3 C-3.33 4.32 -3.66 5.64 -4 7 C-4.99 6.34 -5.98 5.68 -7 5 C-4.88437775 2.67281553 -2.94982021 1.14186589 0 0 Z " fill="#801C1C" transform="translate(75,90)"/>
<path d="M0 0 C1.98 0 3.96 0 6 0 C6.66 1.65 7.32 3.3 8 5 C6.35 4.67 4.7 4.34 3 4 C3.33 3.01 3.66 2.02 4 1 C2.68 0.67 1.36 0.34 0 0 Z " fill="#AD6A8F" transform="translate(69,61)"/>
<path d="M0 0 C0.99 0 1.98 0 3 0 C3 1.32 3 2.64 3 4 C0.69 4 -1.62 4 -4 4 C-3.67 3.34 -3.34 2.68 -3 2 C-2.01 2 -1.02 2 0 2 C0 1.34 0 0.68 0 0 Z " fill="#BE2120" transform="translate(88,53)"/>
<path d="M0 0 C0.66 0 1.32 0 2 0 C2.33 0.99 2.66 1.98 3 3 C3.66 2.34 4.32 1.68 5 1 C5 1.66 5 2.32 5 3 C5.66 3.33 6.32 3.66 7 4 C4.6875 4.625 4.6875 4.625 2 5 C1.01 4.34 0.02 3.68 -1 3 C-0.67 2.01 -0.34 1.02 0 0 Z " fill="#97658A" transform="translate(57,84)"/>
<path d="M0 0 C2 1 2 1 3.25 3.375 C3.4975 4.24125 3.745 5.1075 4 6 C3.01 7.485 3.01 7.485 2 9 C2 8.01 2 7.02 2 6 C0.68 5.34 -0.64 4.68 -2 4 C-1.34 4 -0.68 4 0 4 C0 2.68 0 1.36 0 0 Z " fill="#876281" transform="translate(72,70)"/>
<path d="M0 0 C1.32 1.32 2.64 2.64 4 4 C4.66 3.67 5.32 3.34 6 3 C6.33 4.32 6.66 5.64 7 7 C4.625 6.6875 4.625 6.6875 2 6 C0 3 0 3 0 0 Z " fill="#AB699F" transform="translate(43,64)"/>
<path d="M0 0 C0.66 0 1.32 0 2 0 C2 1.98 2 3.96 2 6 C0.68 6.33 -0.64 6.66 -2 7 C-2 5.68 -2 4.36 -2 3 C-1.34 3 -0.68 3 0 3 C0 2.01 0 1.02 0 0 Z " fill="#C68FB9" transform="translate(38,63)"/>
<path d="M0 0 C0.99 0.33 1.98 0.66 3 1 C2.67 1.99 2.34 2.98 2 4 C1.34 4 0.68 4 0 4 C0 4.66 0 5.32 0 6 C-0.99 6.33 -1.98 6.66 -3 7 C-2.42655063 4.13275314 -2.1385485 3.1385485 0 1 C0 0.67 0 0.34 0 0 Z " fill="#942C2B" transform="translate(58,90)"/>
<path d="M0 0 C0.66 0.33 1.32 0.66 2 1 C0.8125 3 0.8125 3 -1 5 C-3.6875 5.25 -3.6875 5.25 -6 5 C-2.25 1.125 -2.25 1.125 0 0 Z " fill="#5B151C" transform="translate(70,83)"/>
<path d="M0 0 C-0.556875 0.268125 -1.11375 0.53625 -1.6875 0.8125 C-4.19712523 2.10122647 -6.59334236 3.52926478 -9 5 C-9 3.68 -9 2.36 -9 1 C-5.8035914 -0.06546953 -3.34252724 -0.07427838 0 0 Z " fill="#B86B9F" transform="translate(48,43)"/>
</svg>
